<?xml version="1.0" encoding="us-ascii" standalone="no"?><svg xmlns="http://www.w3.org/2000/svg" xmlns:xlink="http://www.w3.org/1999/xlink" contentStyleType="text/css" height="512px" preserveAspectRatio="none" style="width:688px;height:512px;background:#FFFFFF;" version="1.1" viewBox="0 0 688 512" width="688px" zoomAndPan="magnify"><defs/><g><!--cluster PluginLoader--><g id="cluster_PluginLoader"><rect fill="none" height="385" rx="2.5" ry="2.5" style="stroke:#181818;stroke-width:1.0;" width="489" x="7" y="7"/><rect fill="none" height="10" style="stroke:#181818;stroke-width:1.0;" width="15" x="476" y="12"/><rect fill="none" height="2" style="stroke:#181818;stroke-width:1.0;" width="4" x="474" y="14"/><rect fill="none" height="2" style="stroke:#181818;stroke-width:1.0;" width="4" x="474" y="18"/><text fill="#000000" font-family="sans-serif" font-size="14" font-weight="bold" lengthAdjust="spacing" textLength="92" x="205.5" y="34.9659">PluginLoader</text></g><!--cluster ModelStorage--><g id="cluster_ModelStorage"><rect fill="#ADD8E6" height="103" rx="2.5" ry="2.5" style="stroke:#181818;stroke-width:1.0;" width="347" x="31" y="159"/><rect fill="#ADD8E6" height="10" style="stroke:#181818;stroke-width:1.0;" width="15" x="358" y="164"/><rect fill="#ADD8E6" height="2" style="stroke:#181818;stroke-width:1.0;" width="4" x="356" y="166"/><rect fill="#ADD8E6" height="2" style="stroke:#181818;stroke-width:1.0;" width="4" x="356" y="170"/><text fill="#000000" font-family="sans-serif" font-size="14" font-weight="bold" lengthAdjust="spacing" textLength="97" x="156" y="186.9659">ModelStorage</text></g><!--entity PrometheusExporterPlugin--><g id="elem_PrometheusExporterPlugin"><rect fill="#DDA0DD" height="49.0679" rx="2.5" ry="2.5" style="stroke:#181818;stroke-width:0.5;" width="221" x="259.5" y="45"/><rect fill="#DDA0DD" height="10" style="stroke:#181818;stroke-width:0.5;" width="15" x="460.5" y="50"/><rect fill="#DDA0DD" height="2" style="stroke:#181818;stroke-width:0.5;" width="4" x="458.5" y="52"/><rect fill="#DDA0DD" height="2" style="stroke:#181818;stroke-width:0.5;" width="4" x="458.5" y="56"/><text fill="#000000" font-family="sans-serif" font-size="14" lengthAdjust="spacing" textLength="181" x="274.5" y="79.9659">PrometheusExporterPlugin</text></g><!--entity PrometheusImporterPlugin--><g id="elem_PrometheusImporterPlugin"><rect fill="#DDA0DD" height="49.0679" rx="2.5" ry="2.5" style="stroke:#181818;stroke-width:0.5;" width="224" x="23" y="327"/><rect fill="#DDA0DD" height="10" style="stroke:#181818;stroke-width:0.5;" width="15" x="227" y="332"/><rect fill="#DDA0DD" height="2" style="stroke:#181818;stroke-width:0.5;" width="4" x="225" y="334"/><rect fill="#DDA0DD" height="2" style="stroke:#181818;stroke-width:0.5;" width="4" x="225" y="338"/><text fill="#000000" font-family="sans-serif" font-size="14" lengthAdjust="spacing" textLength="184" x="38" y="361.9659">PrometheusImporterPlugin</text></g><!--entity PingNodePlugin--><g id="elem_PingNodePlugin"><rect fill="#DDA0DD" height="49.0679" rx="2.5" ry="2.5" style="stroke:#181818;stroke-width:0.5;" width="149" x="49.5" y="45"/><rect fill="#DDA0DD" height="10" style="stroke:#181818;stroke-width:0.5;" width="15" x="178.5" y="50"/><rect fill="#DDA0DD" height="2" style="stroke:#181818;stroke-width:0.5;" width="4" x="176.5" y="52"/><rect fill="#DDA0DD" height="2" style="stroke:#181818;stroke-width:0.5;" width="4" x="176.5" y="56"/><text fill="#000000" font-family="sans-serif" font-size="14" lengthAdjust="spacing" textLength="109" x="64.5" y="79.9659">PingNodePlugin</text></g><!--entity TelegramNotifierPlugin--><g id="elem_TelegramNotifierPlugin"><rect fill="#DDA0DD" height="49.0679" rx="2.5" ry="2.5" style="stroke:#181818;stroke-width:0.5;" width="198" x="282" y="327"/><rect fill="#DDA0DD" height="10" style="stroke:#181818;stroke-width:0.5;" width="15" x="460" y="332"/><rect fill="#DDA0DD" height="2" style="stroke:#181818;stroke-width:0.5;" width="4" x="458" y="334"/><rect fill="#DDA0DD" height="2" style="stroke:#181818;stroke-width:0.5;" width="4" x="458" y="338"/><text fill="#000000" font-family="sans-serif" font-size="14" lengthAdjust="spacing" textLength="158" x="297" y="361.9659">TelegramNotifierPlugin</text></g><!--entity MetricsModel--><g id="elem_MetricsModel"><rect fill="#B0E0E6" height="49.0679" rx="2.5" ry="2.5" style="stroke:#181818;stroke-width:0.5;" width="132" x="230" y="197"/><rect fill="#B0E0E6" height="10" style="stroke:#181818;stroke-width:0.5;" width="15" x="342" y="202"/><rect fill="#B0E0E6" height="2" style="stroke:#181818;stroke-width:0.5;" width="4" x="340" y="204"/><rect fill="#B0E0E6" height="2" style="stroke:#181818;stroke-width:0.5;" width="4" x="340" y="208"/><text fill="#000000" font-family="sans-serif" font-size="14" lengthAdjust="spacing" textLength="92" x="245" y="231.9659">MetricsModel</text></g><!--entity PingNodeModel--><g id="elem_PingNodeModel"><rect fill="#B0E0E6" height="49.0679" rx="2.5" ry="2.5" style="stroke:#181818;stroke-width:0.5;" width="148" x="47" y="197"/><rect fill="#B0E0E6" height="10" style="stroke:#181818;stroke-width:0.5;" width="15" x="175" y="202"/><rect fill="#B0E0E6" height="2" style="stroke:#181818;stroke-width:0.5;" width="4" x="173" y="204"/><rect fill="#B0E0E6" height="2" style="stroke:#181818;stroke-width:0.5;" width="4" x="173" y="208"/><text fill="#000000" font-family="sans-serif" font-size="14" lengthAdjust="spacing" textLength="108" x="62" y="231.9659">PingNodeModel</text></g><!--entity Prometheus_1--><g id="elem_Prometheus_1"><rect fill="#90EE90" height="49.0679" rx="2.5" ry="2.5" style="stroke:#181818;stroke-width:0.5;" width="135" x="512.5" y="197"/><rect fill="#90EE90" height="10" style="stroke:#181818;stroke-width:0.5;" width="15" x="627.5" y="202"/><rect fill="#90EE90" height="2" style="stroke:#181818;stroke-width:0.5;" width="4" x="625.5" y="204"/><rect fill="#90EE90" height="2" style="stroke:#181818;stroke-width:0.5;" width="4" x="625.5" y="208"/><text fill="#000000" font-family="sans-serif" font-size="14" lengthAdjust="spacing" textLength="95" x="527.5" y="231.9659">Prometheus_1</text></g><!--entity Prometheus_2--><g id="elem_Prometheus_2"><rect fill="#90EE90" height="49.0679" rx="2.5" ry="2.5" style="stroke:#181818;stroke-width:0.5;" width="135" x="67.5" y="457"/><rect fill="#90EE90" height="10" style="stroke:#181818;stroke-width:0.5;" width="15" x="182.5" y="462"/><rect fill="#90EE90" height="2" style="stroke:#181818;stroke-width:0.5;" width="4" x="180.5" y="464"/><rect fill="#90EE90" height="2" style="stroke:#181818;stroke-width:0.5;" width="4" x="180.5" y="468"/><text fill="#000000" font-family="sans-serif" font-size="14" lengthAdjust="spacing" textLength="95" x="82.5" y="491.9659">Prometheus_2</text></g><!--entity Grafana--><g id="elem_Grafana"><rect fill="#FFA500" height="49.0679" rx="2.5" ry="2.5" style="stroke:#181818;stroke-width:0.5;" width="94" x="533" y="327"/><rect fill="#FFA500" height="10" style="stroke:#181818;stroke-width:0.5;" width="15" x="607" y="332"/><rect fill="#FFA500" height="2" style="stroke:#181818;stroke-width:0.5;" width="4" x="605" y="334"/><rect fill="#FFA500" height="2" style="stroke:#181818;stroke-width:0.5;" width="4" x="605" y="338"/><text fill="#000000" font-family="sans-serif" font-size="14" lengthAdjust="spacing" textLength="54" x="548" y="361.9659">Grafana</text></g><!--entity TelegramApi--><g id="elem_TelegramApi"><rect fill="#90EE90" height="49.0679" rx="2.5" ry="2.5" style="stroke:#181818;stroke-width:0.5;" width="126" x="318" y="457"/><rect fill="#90EE90" height="10" style="stroke:#181818;stroke-width:0.5;" width="15" x="424" y="462"/><rect fill="#90EE90" height="2" style="stroke:#181818;stroke-width:0.5;" width="4" x="422" y="464"/><rect fill="#90EE90" height="2" style="stroke:#181818;stroke-width:0.5;" width="4" x="422" y="468"/><text fill="#000000" font-family="sans-serif" font-size="14" lengthAdjust="spacing" textLength="86" x="333" y="491.9659">TelegramApi</text></g><!--link PrometheusExporterPlugin to Prometheus_1--><g id="link_PrometheusExporterPlugin_Prometheus_1"><path d="M403.73,94.13 C416.93,103.41 432.2,114.17 446,124 C480.68,148.69 515.3587,173.6933 542.4387,193.2833 " fill="none" id="PrometheusExporterPlugin-to-Prometheus_1" style="stroke:#181818;stroke-width:1.0;"/><polygon fill="#181818" points="547.3,196.8,542.3525,188.284,543.2489,193.8694,537.6635,194.7658,547.3,196.8" style="stroke:#181818;stroke-width:1.0;"/><text fill="#000000" font-family="sans-serif" font-size="13" lengthAdjust="spacing" textLength="93" x="472" y="138.897">exports metrics</text></g><!--reverse link PrometheusImporterPlugin to Prometheus_2--><g id="link_PrometheusImporterPlugin_Prometheus_2"><path d="M135,382.28 C135,405.27 135,433.9 135,456.85 " fill="none" id="PrometheusImporterPlugin-backto-Prometheus_2" style="stroke:#181818;stroke-width:1.0;"/><polygon fill="#181818" points="135,376.28,131,385.28,135,381.28,139,385.28,135,376.28" style="stroke:#181818;stroke-width:1.0;"/><text fill="#000000" font-family="sans-serif" font-size="13" lengthAdjust="spacing" textLength="94" x="136" y="422.897">imports metrics</text></g><!--link Prometheus_1 to Grafana--><g id="link_Prometheus_1_Grafana"><path d="M580,246.28 C580,269.27 580,297.9 580,320.85 " fill="none" id="Prometheus_1-to-Grafana" style="stroke:#181818;stroke-width:1.0;"/><polygon fill="#181818" points="580,326.85,584,317.85,580,321.85,576,317.85,580,326.85" style="stroke:#181818;stroke-width:1.0;"/><text fill="#000000" font-family="sans-serif" font-size="13" lengthAdjust="spacing" textLength="99" x="581" y="292.897">provides metrics</text></g><!--reverse link PrometheusExporterPlugin to MetricsModel--><g id="link_PrometheusExporterPlugin_MetricsModel"><path d="M357.2142,99.6533 C350.8842,113.9033 344.93,126.87 337,143 C328,161.31 317.19,181.68 308.93,196.94 " fill="none" id="PrometheusExporterPlugin-backto-MetricsModel" style="stroke:#181818;stroke-width:1.0;"/><polygon fill="#181818" points="359.65,94.17,352.3408,100.7712,357.6202,98.7395,359.6519,104.0189,359.65,94.17" style="stroke:#181818;stroke-width:1.0;"/><text fill="#000000" font-family="sans-serif" font-size="13" lengthAdjust="spacing" textLength="91" x="346" y="138.897">Upload metrics</text></g><!--reverse link MetricsModel to PrometheusImporterPlugin--><g id="link_MetricsModel_PrometheusImporterPlugin"><path d="M254.3791,249.4152 C240.2191,258.9252 229.05,266.91 215,278 C195.58,293.33 174.92,312.13 159.46,326.74 " fill="none" id="MetricsModel-backto-PrometheusImporterPlugin" style="stroke:#181818;stroke-width:1.0;"/><polygon fill="#181818" points="259.36,246.07,249.6585,247.7672,255.2092,248.8577,254.1188,254.4084,259.36,246.07" style="stroke:#181818;stroke-width:1.0;"/><text fill="#000000" font-family="sans-serif" font-size="13" lengthAdjust="spacing" textLength="108" x="216" y="292.897">Download metrics</text></g><!--link PingNodePlugin to PingNodeModel--><g id="link_PingNodePlugin_PingNodeModel"><path d="M100.63,94.07 C93.55,102.75 86.68,113.14 83,124 C74.44,149.24 85.074,172.6104 98.444,192.0004 " fill="none" id="PingNodePlugin-to-PingNodeModel" style="stroke:#181818;stroke-width:1.0;"/><polygon fill="#181818" points="101.85,196.94,100.0341,187.26,99.0117,192.8237,93.448,191.8013,101.85,196.94" style="stroke:#181818;stroke-width:1.0;"/><text fill="#000000" font-family="sans-serif" font-size="13" lengthAdjust="spacing" textLength="162" x="84" y="138.897">Export interface for plugins</text></g><!--link PingNodePlugin to MetricsModel--><g id="link_PingNodePlugin_MetricsModel"><path d="M198.69,91.34 C217.43,99.26 236.35,109.89 251,124 C271.77,144 282.2476,169.7036 288.5776,191.2336 " fill="none" id="PingNodePlugin-to-MetricsModel" style="stroke:#181818;stroke-width:1.0;"/><polygon fill="#181818" points="290.27,196.99,291.5689,187.2272,288.8597,192.193,283.8938,189.4837,290.27,196.99" style="stroke:#181818;stroke-width:1.0;"/><text fill="#000000" font-family="sans-serif" font-size="13" lengthAdjust="spacing" textLength="44" x="267" y="138.897">metrics</text></g><!--link MetricsModel to TelegramNotifierPlugin--><g id="link_MetricsModel_TelegramNotifierPlugin"><path d="M311.79,246.28 C327.06,269.27 346.7409,298.9017 361.9809,321.8517 " fill="none" id="MetricsModel-to-TelegramNotifierPlugin" style="stroke:#181818;stroke-width:1.0;"/><polygon fill="#181818" points="365.3,326.85,363.6535,317.1397,362.534,322.6847,356.9891,321.5653,365.3,326.85" style="stroke:#181818;stroke-width:1.0;"/><text fill="#000000" font-family="sans-serif" font-size="13" lengthAdjust="spacing" textLength="77" x="344" y="292.897">Provide Alert</text></g><!--link TelegramNotifierPlugin to TelegramApi--><g id="link_TelegramNotifierPlugin_TelegramApi"><path d="M381,376.28 C381,399.27 381,427.9 381,450.85 " fill="none" id="TelegramNotifierPlugin-to-TelegramApi" style="stroke:#181818;stroke-width:1.0;"/><polygon fill="#181818" points="381,456.85,385,447.85,381,451.85,377,447.85,381,456.85" style="stroke:#181818;stroke-width:1.0;"/><text fill="#000000" font-family="sans-serif" font-size="13" lengthAdjust="spacing" textLength="61" x="382" y="422.897">Send Alert</text></g><!--SRC=[ZPBDIiD04CVlUOen7ZmLeg2eY119h4AjeTgpX6PI5vBTi8qV888VHm-2Hn_0imXY3rPVOVD6JfEsRjf6p24aEx__VsPdPWdKYtfJxzcTUZKM0WmPHzXfj5rOj1rdtLsR73Rswtl79qLent8jBLHlkMuJ5ZSirzsm9gU7BRjP9tXtrrwrVe-zTijhqB7Zs9RZ64P7n8dWo5CmFIbYJ4_nh7UoR1Qk5U6LEU6wz4EV- -OeiUxiHMTTnXl23r1U6K3F4gXdzQK-rJUz1-fT3RAxx06e5OFidZvlLB-aoaLQiWCHO7IK2kbtqSmRTZM3O2fPfvUJfjQ-QSvZlDiaQ3vuFODFkk1U9aAcA8iwpL5dg_dz-5_yg9o_gMECi2lzk2bI5h8Pp-lINCUmdR3nt8ogQq2jjWtw8i0cO4xq82uwQbHT2RPgDLsxGbeMLsd9UfXhj3Q49bASim1_MLgI9_MXNbMV5kKhkrLlsIFzzwkB7nQWpvrSsqb46pJnB4NBzKvTPXCSSS5Bul9iYbRfsqEQeY1Wd8n2luCG2Wb9pi_LJrKxpbIkSmZEdpYGnYlw1dQ4CZMC2b3te4KWtH7oO2pw0G00]--></g></svg>